<?xml version="1.0" encoding="UTF-8"?>
<svg id="Layer_1" data-name="Layer 1" xmlns="http://www.w3.org/2000/svg" xmlns:xlink="http://www.w3.org/1999/xlink" viewBox="0 0 48 48">
  <defs>
    <style>
      .cls-1 {
        fill: #ffedf5;
      }

      .cls-2 {
        fill: #e20074;
      }

      .cls-3 {
        fill: url(#linear-gradient);
      }
    </style>
    <linearGradient id="linear-gradient" x1="17.18" y1="25.29" x2="23.5" y2="38.1" gradientUnits="userSpaceOnUse">
      <stop offset="0" stop-color="#e20074"/>
      <stop offset="1" stop-color="#3700ff"/>
    </linearGradient>
  </defs>
  <rect class="cls-1" x=".15" y=".15" width="47.71" height="47.71" rx="6.39" ry="6.39"/>
  <g>
    <path class="cls-3" d="M25.51,35.98h-8.31l-5.33-14.54c-.93-2.55.95-5.25,3.66-5.25h0c1.64,0,3.1,1.02,3.66,2.56l6.32,17.23Z"/>
    <path class="cls-2" d="M17.49,35.98h8.31s14.59-20.41,14.59-20.41c1.6-2.24,0-5.35-2.75-5.35h0c-1.09,0-2.12.53-2.75,1.41l-17.4,24.34Z"/>
  </g>
  <g>
    <rect class="cls-2" x="38.58" y="21.81" width="4.38" height="4.38"/>
    <rect class="cls-2" x="5.04" y="21.81" width="4.38" height="4.38"/>
  </g>
</svg>