<?xml version="1.0" encoding="UTF-8"?>
<svg id="Layer_2" data-name="Layer 2" xmlns="http://www.w3.org/2000/svg" xmlns:xlink="http://www.w3.org/1999/xlink" viewBox="0 0 816.98 216.48">
  <defs>
    <style>
      .cls-1 {
        fill: #fff;
      }

      .cls-2 {
        fill: #ffedf5;
      }

      .cls-3 {
        fill: #e20074;
      }

      .cls-4 {
        fill: url(#linear-gradient);
      }
    </style>
    <linearGradient id="linear-gradient" x1="63.13" y1="116.37" x2="98.46" y2="188.02" gradientUnits="userSpaceOnUse">
      <stop offset="0" stop-color="#e20074"/>
      <stop offset="1" stop-color="#3700ff"/>
    </linearGradient>
  </defs>
  <g id="Layer_1-2" data-name="Layer 1">
    <g>
      <g>
        <path class="cls-1" d="M373.56,48.8v23.6h-38.33v95.28h-28.39v-95.28h-38.33v-23.6h105.04Z"/>
        <path class="cls-1" d="M446.31,48.8l37.44,118.88h-27.68l-7.98-25.2h-47.73l-7.98,25.2h-26.08l37.26-118.88h42.76ZM407.63,119.24h33.18l-13.84-43.47h-5.86l-13.48,43.47Z"/>
        <path class="cls-1" d="M542.66,47.02c28.03,0,47.37,12.6,47.37,35.84v6.74h-27.86v-6.74c0-8.52-6.92-13.84-19.69-13.84h-2.13c-12.6,0-19.52,4.97-19.52,11.36v1.77c0,7.81,5.86,10.29,29.81,15.97,27.86,6.74,41.34,15.97,41.34,35.84v1.77c0,19.16-15.97,33.71-49.15,33.71h-2.48c-33,0-49.5-14.73-49.5-38.15v-6.21h28.03v6.21c0,11.53,7.63,16.15,21.82,16.15h2.13c13.66,0,20.94-4.26,20.94-11.53v-1.42c0-7.27-7.1-11-31.76-16.5-25.73-5.68-39.21-14.73-39.21-34.42v-2.66c0-21.47,17.92-33.89,47.37-33.89h2.48Z"/>
        <path class="cls-1" d="M637.59,48.8v46.49h5.32l36.2-46.49h31.23l-41.7,53.41v6.03l44.18,59.44h-33.18l-36.2-48.79h-5.86v48.79h-28.39V48.8h28.39Z"/>
        <path class="cls-1" d="M767.65,47.02c28.03,0,47.37,12.6,47.37,35.84v6.74h-27.86v-6.74c0-8.52-6.92-13.84-19.69-13.84h-2.13c-12.6,0-19.52,4.97-19.52,11.36v1.77c0,7.81,5.86,10.29,29.81,15.97,27.86,6.74,41.34,15.97,41.34,35.84v1.77c0,19.16-15.97,33.71-49.15,33.71h-2.48c-33,0-49.5-14.73-49.5-38.15v-6.21h28.04v6.21c0,11.53,7.63,16.15,21.82,16.15h2.13c13.66,0,20.94-4.26,20.94-11.53v-1.42c0-7.27-7.1-11-31.76-16.5-25.73-5.68-39.21-14.73-39.21-34.42v-2.66c0-21.47,17.92-33.89,47.38-33.89h2.48Z"/>
      </g>
      <g>
        <rect class="cls-2" width="216.48" height="216.48" rx="28.98" ry="28.98"/>
        <g>
          <path class="cls-4" d="M109.68,176.13h-46.45l-29.81-81.26c-5.22-14.23,5.31-29.32,20.47-29.32h0c9.15,0,17.32,5.71,20.47,14.3l35.32,96.28Z"/>
          <path class="cls-3" d="M64.86,176.13h46.45s81.52-114.06,81.52-114.06c8.94-12.51,0-29.88-15.37-29.88h0c-6.1,0-11.83,2.95-15.37,7.91l-97.23,136.03Z"/>
        </g>
      </g>
    </g>
  </g>
</svg>