<?xml version="1.0" encoding="UTF-8"?>
<svg id="Layer_2" data-name="Layer 2" xmlns="http://www.w3.org/2000/svg" xmlns:xlink="http://www.w3.org/1999/xlink" viewBox="0 0 668.92 216.48">
  <defs>
    <style>
      .cls-1 {
        fill: #fff;
      }

      .cls-2 {
        fill: #ffedf5;
      }

      .cls-3 {
        fill: #e20074;
      }

      .cls-4 {
        fill: url(#linear-gradient);
      }
    </style>
    <linearGradient id="linear-gradient" x1="77.29" y1="114.08" x2="105.98" y2="172.24" gradientUnits="userSpaceOnUse">
      <stop offset="0" stop-color="#e20074"/>
      <stop offset="1" stop-color="#3700ff"/>
    </linearGradient>
  </defs>
  <g id="Layer_1-2" data-name="Layer 1">
    <g>
      <g>
        <g>
          <path class="cls-1" d="M283.35,64.1h-14.83v-14.83h14.83v14.83ZM268.53,15.17v25.21h4.45v-.74c0-11.86,6.67-19.27,19.27-19.27h.74v53.37c0,7.41-2.97,10.38-10.38,10.38h-2.22v5.19h38.55v-5.19h-2.22c-7.41,0-10.38-2.97-10.38-10.38V20.36h.74c12.6,0,19.27,7.41,19.27,19.27v.74h4.45V15.17h-62.27ZM315.97,64.1h14.83v-14.83h-14.83v14.83Z"/>
          <g>
            <path class="cls-1" d="M359.3,65.1h11.99c.98,4.97,4.26,6.93,8.7,6.93,5.06,0,7.64-2.84,7.64-6.66s-2.49-5.77-7.1-7.01l-6.84-1.95c-9.41-2.57-13.23-9.41-13.23-16.69,0-11.27,8.43-18.56,19.44-18.56,11.99,0,18.47,7.01,19.62,17.93h-11.72c-.71-4.44-3.28-6.66-7.9-6.66-4.09,0-7.19,2.49-7.19,6.48s2.75,5.51,6.04,6.39l6.84,1.86c8.88,2.31,14.3,8.88,14.3,17.49,0,11.9-8.79,18.64-19.89,18.64-12.25,0-19.62-6.48-20.69-18.2h0Z"/>
            <path class="cls-1" d="M432.99,39.09h12.25l-16.69,47.41c-2.31,6.48-6.75,10.83-14.03,10.83-2.22,0-4.7-.27-6.93-1.15v-9.15c1.33.36,3.02.53,4.7.53,2.84,0,4.53-1.06,5.86-4.7l.98-2.57-15.45-41.2h12.25l8.35,25.93h.53l8.17-25.93h0Z"/>
            <path class="cls-1" d="M447.8,69.72h10.65c.62,3.11,2.66,4.44,5.68,4.44s4.97-1.51,4.97-4-1.95-3.73-4.79-4.53l-5.86-1.51c-6.21-1.69-10.12-5.59-10.12-13.05s6.04-13.32,15.8-13.32c9.06,0,15.09,5.15,15.98,13.76h-11.01c-.44-3.11-2.13-4.62-4.97-4.62s-4.62,1.78-4.62,4,1.33,3.46,3.82,4l5.77,1.51c7.28,1.86,11.1,6.21,11.1,12.87,0,8.52-6.21,14.03-16.07,14.03s-15.63-5.06-16.33-13.58h0Z"/>
            <path class="cls-1" d="M493.3,69.27v-20.42h-7.28v-9.77h7.28v-6.93l9.32-8.61h2.13v15.54h10.92v9.77h-10.92v19c0,3.2,1.86,4.88,5.15,4.88,1.69,0,3.37-.27,4.88-.62v8.97c-2.4,1.06-4.97,1.51-8.17,1.51-7.9,0-13.32-4.62-13.32-13.32h0Z"/>
            <path class="cls-1" d="M558.8,63.24h-26.81c.62,8.08,3.91,10.39,8.26,10.39,3.46,0,5.77-1.33,6.84-4h11.54c-1.69,8.43-8.97,13.67-18.38,13.67-11.45,0-19.18-8.26-19.18-22.82s7.46-22.82,19.44-22.82c11.19,0,18.47,8.52,18.47,21.57,0,1.51,0,3.02-.18,4h0ZM532.35,54.98h15.8c-.8-5.77-3.82-7.64-7.64-7.64-4.17,0-7.1,1.86-8.17,7.64h0Z"/>
            <path class="cls-1" d="M628.1,53.56v28.32h-11.45v-26.9c0-4.17-1.51-6.84-5.59-6.84-4.44,0-7.37,3.28-7.37,8.61v25.12h-11.45v-26.9c0-4.17-1.51-6.84-5.59-6.84-4.35,0-7.28,3.37-7.28,8.61v25.12h-11.45v-42.79h10.74v5.24h.53c2.22-4.17,6.3-6.66,11.45-6.66,5.77,0,9.59,2.31,11.45,6.84h.53c2.4-4.44,6.93-6.84,12.43-6.84,8.7,0,13.05,5.42,13.05,15.89Z"/>
            <path class="cls-1" d="M636.51,69.72h10.65c.62,3.11,2.66,4.44,5.68,4.44s4.97-1.51,4.97-4-1.95-3.73-4.79-4.53l-5.86-1.51c-6.21-1.69-10.12-5.59-10.12-13.05s6.04-13.32,15.8-13.32c9.06,0,15.09,5.15,15.98,13.76h-11.01c-.44-3.11-2.13-4.62-4.97-4.62s-4.62,1.78-4.62,4,1.33,3.46,3.82,4l5.77,1.51c7.28,1.86,11.1,6.21,11.1,12.87,0,8.52-6.21,14.03-16.07,14.03s-15.63-5.06-16.33-13.58h0Z"/>
          </g>
        </g>
        <g>
          <path class="cls-1" d="M345.21,114.89v17.23h-27.98v69.56h-20.73v-69.56h-27.98v-17.23h76.68Z"/>
          <path class="cls-1" d="M398.32,114.89l27.33,86.79h-20.21l-5.83-18.39h-34.84l-5.83,18.39h-19.04l27.2-86.79h31.22ZM370.08,166.32h24.22l-10.1-31.74h-4.27l-9.84,31.74Z"/>
          <path class="cls-1" d="M468.66,113.6c20.47,0,34.58,9.2,34.58,26.17v4.92h-20.34v-4.92c0-6.22-5.05-10.1-14.38-10.1h-1.55c-9.2,0-14.25,3.63-14.25,8.29v1.29c0,5.7,4.27,7.51,21.76,11.66,20.34,4.92,30.18,11.66,30.18,26.17v1.29c0,13.99-11.66,24.61-35.88,24.61h-1.81c-24.09,0-36.14-10.75-36.14-27.85v-4.53h20.47v4.53c0,8.42,5.57,11.79,15.93,11.79h1.55c9.97,0,15.28-3.11,15.28-8.42v-1.04c0-5.31-5.18-8.03-23.19-12.05-18.78-4.14-28.63-10.75-28.63-25.13v-1.94c0-15.67,13.08-24.74,34.58-24.74h1.81Z"/>
          <path class="cls-1" d="M537.96,114.89v33.94h3.89l26.42-33.94h22.8l-30.44,38.99v4.4l32.25,43.39h-24.22l-26.42-35.62h-4.27v35.62h-20.72v-86.79h20.72Z"/>
          <path class="cls-1" d="M632.91,113.6c20.47,0,34.58,9.2,34.58,26.17v4.92h-20.34v-4.92c0-6.22-5.05-10.1-14.38-10.1h-1.55c-9.2,0-14.25,3.63-14.25,8.29v1.29c0,5.7,4.27,7.51,21.76,11.66,20.34,4.92,30.18,11.66,30.18,26.17v1.29c0,13.99-11.66,24.61-35.88,24.61h-1.81c-24.09,0-36.14-10.75-36.14-27.85v-4.53h20.47v4.53c0,8.42,5.57,11.79,15.93,11.79h1.55c9.97,0,15.29-3.11,15.29-8.42v-1.04c0-5.31-5.18-8.03-23.19-12.05-18.78-4.14-28.63-10.75-28.63-25.13v-1.94c0-15.67,13.08-24.74,34.59-24.74h1.81Z"/>
        </g>
      </g>
      <g>
        <rect class="cls-2" width="216.48" height="216.48" rx="28.98" ry="28.98"/>
        <g>
          <path class="cls-4" d="M115.08,162.59h-37.72l-24.2-65.97c-4.24-11.55,4.31-23.8,16.62-23.8h0c7.43,0,14.06,4.63,16.62,11.61l28.68,78.17Z"/>
          <path class="cls-3" d="M78.69,162.59h37.72s66.19-92.6,66.19-92.6c7.26-10.15,0-24.26-12.48-24.26h0c-4.95,0-9.6,2.39-12.48,6.42l-78.94,110.45Z"/>
        </g>
        <g>
          <rect class="cls-3" x="174.41" y="98.31" width="19.86" height="19.86"/>
          <rect class="cls-3" x="22.21" y="98.31" width="19.86" height="19.86"/>
        </g>
      </g>
    </g>
  </g>
</svg>